HIERARCHY
ROOT Hips
{
  OFFSET -24.5077 92.419 -73.7383
  CHANNELS 6 Xposition Yposition Zposition Zrotation Xrotation Yrotation
  JOINT LeftUpLeg
  {
    OFFSET 9.63379 -0.250344 0
    CHANNELS 6 Xposition Yposition Zposition Zrotation Xrotation Yrotation
    JOINT LeftLeg
    {
      OFFSET 0 -40.4779 -1.71313
      CHANNELS 6 Xposition Yposition Zposition Zrotation Xrotation Yrotation
      JOINT LeftFoot
      {
        OFFSET 0.0126047 -40.4416 -0.864524
        CHANNELS 6 Xposition Yposition Zposition Zrotation Xrotation Yrotation
        JOINT LeftToeBase
        {
          OFFSET -0.183287 -12.1867 8.28226
          CHANNELS 6 Xposition Yposition Zposition Zrotation Xrotation Yrotation
          End Site
          {
            OFFSET 0 0 9.15615
          }
        }
      }
    }
  }
  JOINT RightUpLeg
  {
    OFFSET -9.63379 -0.250344 0
    CHANNELS 6 Xposition Yposition Zposition Zrotation Xrotation Yrotation
    JOINT RightLeg
    {
      OFFSET 0 -40.478 -1.71313
      CHANNELS 6 Xposition Yposition Zposition Zrotation Xrotation Yrotation
      JOINT RightFoot
      {
        OFFSET -0.0126047 -40.4414 -0.864524
        CHANNELS 6 Xposition Yposition Zposition Zrotation Xrotation Yrotation
        JOINT RightToeBase
        {
          OFFSET 0.183287 -12.1867 8.28226
          CHANNELS 6 Xposition Yposition Zposition Zrotation Xrotation Yrotation
          End Site
          {
            OFFSET 0.00319481 0 9.156
          }
        }
      }
    }
  }
  JOINT Spine
  {
    OFFSET 0 5.60909 -1.89659
    CHANNELS 6 Xposition Yposition Zposition Zrotation Xrotation Yrotation
    JOINT Spine1
    {
      OFFSET 0 6.56349 1.09934
      CHANNELS 6 Xposition Yposition Zposition Zrotation Xrotation Yrotation
      JOINT Spine2
      {
        OFFSET 0 7.57662 1.04304
        CHANNELS 6 Xposition Yposition Zposition Zrotation Xrotation Yrotation
        JOINT Spine3
        {
          OFFSET 0 8.29213 0.399731
          CHANNELS 6 Xposition Yposition Zposition Zrotation Xrotation Yrotation
          JOINT Spine4
          {
            OFFSET 0 8.9581 -0.526302
            CHANNELS 6 Xposition Yposition Zposition Zrotation Xrotation Yrotation
            JOINT Neck
            {
              OFFSET 0 18.4163 -4.35419
              CHANNELS 6 Xposition Yposition Zposition Zrotation Xrotation Yrotation
              JOINT Head
              {
                OFFSET 0 8.97127 1.78542
                CHANNELS 6 Xposition Yposition Zposition Zrotation Xrotation Yrotation
                End Site
                {
                  OFFSET 0 19.3737 0.971395
                }
              }
            }
            JOINT LeftShoulder
            {
              OFFSET 6.14423 15.3316 -3.79324
              CHANNELS 6 Xposition Yposition Zposition Zrotation Xrotation Yrotation
              JOINT LeftArm
              {
                OFFSET 9.01906 -1.11411 -1.79347
                CHANNELS 6 Xposition Yposition Zposition Zrotation Xrotation Yrotation
                JOINT LeftForeArm
                {
                  OFFSET 27.687 0 0
                  CHANNELS 6 Xposition Yposition Zposition Zrotation Xrotation Yrotation
                  JOINT LeftHand
                  {
                    OFFSET 27.8738 0 0
                    CHANNELS 6 Xposition Yposition Zposition Zrotation Xrotation Yrotation
                    End Site
                    {
                      OFFSET 5 0 0
                    }
                  }
                }
              }
            }
            JOINT RightShoulder
            {
              OFFSET -6.14423 15.3316 -3.79324
              CHANNELS 6 Xposition Yposition Zposition Zrotation Xrotation Yrotation
              JOINT RightArm
              {
                OFFSET -9.01884 -1.11411 -1.79347
                CHANNELS 6 Xposition Yposition Zposition Zrotation Xrotation Yrotation
                JOINT RightForeArm
                {
                  OFFSET -27.0381 0.00109999 0
                  CHANNELS 6 Xposition Yposition Zposition Zrotation Xrotation Yrotation
                  JOINT RightHand
                  {
                    OFFSET -28.5227 0 0
                    CHANNELS 6 Xposition Yposition Zposition Zrotation Xrotation Yrotation
                    End Site
                    {
                      OFFSET -5 0 0
                    }
                  }
                }
              }
            }
          }
        }
      }
    }
  }
}
MOTION
Frames:	4
Frame Time:	0.00833333
-26.93 92.657 -60.8273 1.2636 1.52752 4.19745 9.63379 -0.250344 -7.15256e-007 0.722753 -2.29376 9.81648 0 -40.4779 -1.71313 0.204629 3.57871 -0.0432576 0.0126047 -40.4416 -0.864524 0.056783 -0.965442 -0.00516688 -0.183287 -12.1867 8.28226 2.77363e-011 3.82565e-011 9.42414e-011 -9.63379 -0.250344 -7.15256e-007 -2.19499 -3.24225 7.30366 0 -40.478 -1.71313 1.24343 4.05442 -1.42316 -0.0126047 -40.4414 -0.864524 0.00661454 -2.15522 -0.000119391 0.183287 -12.1867 8.28226 -2.7657e-012 2.5582e-011 3.69612e-011 -2.64698e-023 5.60909 -1.89659 0.0539302 -0.0968889 -0.574494 0 6.56349 1.09934 -0.0248536 -0.181604 -1.15296 0 7.57662 1.04304 -0.0247307 -0.181544 -1.15297 0 8.29213 0.399731 -0.0246092 -0.181482 -1.15299 0 8.9581 -0.526302 -0.0244889 -0.181418 -1.153 0 18.4163 -4.35419 -4.49478 0.260454 2.11931 1.05879e-022 8.97127 1.78542 3.11033 -4.29811 0.163664 6.14423 15.3316 -3.79324 -23.693 1.87493 -2.74963 9.01906 -1.11411 -1.79347 -57.2713 12.0075 -6.0102 27.687 0 0 -4.73528 16.164 -12.0475 27.8738 0 0 13.8231 -0.160763 3.87536 -6.14423 15.3316 -3.79324 24.2094 7.58875 21.0684 -9.01884 -1.11411 -1.79347 58.8801 22.4754 2.40142 -27.0381 0.00109999 5.96046e-008 -6.78166 5.84228 0.919284 -28.5227 0 0 -6.27507 -2.84863 -8.80799 
-26.9303 92.6562 -60.8236 1.26639 1.53917 4.17442 9.63379 -0.250344 -7.15256e-007 0.712509 -2.2887 9.80258 0 -40.4779 -1.71313 0.212556 3.55702 -0.0432566 0.0126047 -40.4416 -0.864524 0.0567837 -0.956882 -0.00516686 -0.183287 -12.1867 8.28226 2.77363e-011 3.82565e-011 9.42414e-011 -9.63379 -0.250344 -7.15256e-007 -2.20058 -3.26193 7.29366 0 -40.478 -1.71313 1.24381 4.06939 -1.42318 -0.0126047 -40.4414 -0.864524 0.00661452 -2.16636 -0.000119392 0.183287 -12.1867 8.28226 -2.7657e-012 2.5582e-011 3.69612e-011 -2.64698e-023 5.60909 -1.89659 0.0466478 -0.0969716 -0.581546 0 6.56349 1.09934 -0.0441233 -0.181716 -1.1671 0 7.57662 1.04304 -0.0439995 -0.181656 -1.16711 0 8.29213 0.399731 -0.0438769 -0.181594 -1.16712 0 8.9581 -0.526302 -0.0437557 -0.181529 -1.16714 0 18.4163 -4.35419 -4.35418 0.350021 2.13663 1.05879e-022 8.97127 1.78542 3.04069 -4.35226 0.23476 6.14423 15.3316 -3.79324 -23.6415 1.84718 -2.66724 9.01906 -1.11411 -1.79347 -57.2524 12.0329 -6.04259 27.687 0 0 -4.72706 16.2217 -12.0782 27.8738 0 0 13.8509 -0.160769 3.84754 -6.14423 15.3316 -3.79324 24.3601 7.71516 21.3513 -9.01884 -1.11411 -1.79347 58.7654 22.3222 2.30225 -27.0381 0.00109999 5.96046e-008 -6.82751 5.59632 0.99035 -28.5227 0 0 -6.15999 -2.83595 -8.84345 
-26.9307 92.6554 -60.8201 1.27002 1.5497 4.15159 9.63379 -0.250344 -7.15256e-007 0.702158 -2.28306 9.78966 0 -40.4779 -1.71313 0.219117 3.53571 -0.0432556 0.0126047 -40.4416 -0.864524 0.0567845 -0.948438 -0.00516685 -0.183287 -12.1867 8.28226 2.77363e-011 3.82565e-011 9.42414e-011 -9.63379 -0.250344 -7.15256e-007 -2.20697 -3.28063 7.28209 0 -40.478 -1.71313 1.24419 4.0847 -1.42321 -0.0126047 -40.4414 -0.864524 0.00661449 -2.17714 -0.000119393 0.183287 -12.1867 8.28226 -2.7657e-012 2.5582e-011 3.69612e-011 -2.64698e-023 5.60909 -1.89659 0.040168 -0.0973079 -0.587371 0 6.56349 1.09934 -0.0618378 -0.182333 -1.17877 0 7.57662 1.04304 -0.0617131 -0.182272 -1.17878 0 8.29213 0.399731 -0.0615897 -0.18221 -1.1788 0 8.9581 -0.526302 -0.0614677 -0.182144 -1.17882 0 18.4163 -4.35419 -4.23086 0.439503 2.15253 1.05879e-022 8.97127 1.78542 2.98245 -4.40419 0.297104 6.14423 15.3316 -3.79324 -23.5948 1.82336 -2.59699 9.01906 -1.11411 -1.79347 -57.2385 12.0563 -6.06905 27.687 0 0 -4.71761 16.2679 -12.1134 27.8738 0 0 13.8724 -0.160774 3.82073 -6.14423 15.3316 -3.79324 24.4929 7.82788 21.6059 -9.01884 -1.11411 -1.79347 58.662 22.1834 2.21339 -27.0381 0.00109999 5.96046e-008 -6.86971 5.37208 1.05401 -28.5227 0 0 -6.05043 -2.82569 -8.88327 
-26.9314 92.6548 -60.8172 1.27572 1.55745 4.12926 9.63379 -0.250344 -7.15256e-007 0.691536 -2.27602 9.77922 0 -40.4779 -1.71313 0.222262 3.5153 -0.0432546 0.0126047 -40.4416 -0.864524 0.0567852 -0.940284 -0.00516684 -0.183287 -12.1867 8.28226 2.77363e-011 3.82565e-011 9.42414e-011 -9.63379 -0.250344 -7.15256e-007 -2.21531 -3.29692 7.2666 0 -40.478 -1.71313 1.24459 4.10085 -1.42324 -0.0126047 -40.4414 -0.864524 0.00661447 -2.18704 -0.000119394 0.183287 -12.1867 8.28226 -2.7657e-012 2.5582e-011 3.69612e-011 -2.64698e-023 5.60909 -1.89659 0.035695 -0.0982782 -0.590129 0 6.56349 1.09934 -0.0756642 -0.184212 -1.18429 0 7.57662 1.04304 -0.0755391 -0.184152 -1.18431 0 8.29213 0.399731 -0.0754153 -0.184088 -1.18432 0 8.9581 -0.526302 -0.0752928 -0.184022 -1.18434 0 18.4163 -4.35419 -4.15063 0.528777 2.16484 1.05879e-022 8.97127 1.78542 2.95245 -4.45055 0.337548 6.14423 15.3316 -3.79324 -23.5606 1.80937 -2.55709 9.01906 -1.11411 -1.79347 -57.2372 12.0748 -6.08064 27.687 0 0 -4.70521 16.2852 -12.1598 27.8738 0 0 13.8779 -0.160778 3.79647 -6.14423 15.3316 -3.79324 24.5836 7.90768 21.7894 -9.01884 -1.11411 -1.79347 58.5875 22.0809 2.14989 -27.0381 0.00109999 5.96046e-008 -6.90392 5.20215 1.09925 -28.5227 0 0 -5.95467 -2.82147 -8.93401 
